<?xml version="1.0" encoding="utf-8"?>
<!-- Generator: Adobe Illustrator 16.0.0, SVG Export Plug-In . SVG Version: 6.00 Build 0)  -->
<!DOCTYPE svg PUBLIC "-//W3C//DTD SVG 1.1//EN" "http://www.w3.org/Graphics/SVG/1.1/DTD/svg11.dtd">
<svg version="1.1" id="圖層_1" xmlns="http://www.w3.org/2000/svg" xmlns:xlink="http://www.w3.org/1999/xlink" x="0px" y="0px"
	 width="82px" height="82px" viewBox="0 0 82 82" enable-background="new 0 0 82 82" xml:space="preserve">
<g>
	<circle fill="#3298FF" cx="42.999" cy="43" r="30.72"/>
	<circle fill="#1B6896" stroke="#1B6896" stroke-width="2" stroke-miterlimit="10" cx="43.398" cy="19.071" r="3.072"/>
	<path fill="#1B6896" stroke="#1B6896" stroke-width="2" stroke-miterlimit="10" d="M46.473,65.328c0-1.696-1.377-3.071-3.074-3.071
		c-1.694,0-3.07,1.375-3.07,3.071s1.376,3.072,3.07,3.072C45.096,68.4,46.473,67.024,46.473,65.328z"/>
	<line fill="none" stroke="#282828" stroke-width="2" stroke-miterlimit="10" x1="67.566" y1="25.64" x2="75.641" y2="25.64"/>
	<line fill="none" stroke="#282828" stroke-width="2" stroke-miterlimit="10" x1="14.435" y1="25.64" x2="6.36" y2="25.64"/>
	<line fill="none" stroke="#282828" stroke-width="2" stroke-miterlimit="10" x1="67.566" y1="56.359" x2="75.641" y2="56.359"/>
	<line fill="none" stroke="#282828" stroke-width="2" stroke-miterlimit="10" x1="14.435" y1="56.359" x2="6.36" y2="56.359"/>
	<circle fill="none" stroke="#282828" stroke-width="2" stroke-miterlimit="10" cx="40.999" cy="41" r="30.72"/>
	<circle fill="#FFFFFF" stroke="#282828" stroke-width="2" stroke-miterlimit="10" cx="40.999" cy="17.871" r="3.072"/>
	<circle fill="#FFFFFF" stroke="#282828" stroke-width="2" stroke-miterlimit="10" cx="41" cy="64.128" r="3.072"/>
	<rect fill="none" width="82" height="82"/>
	
		<rect x="19.495" y="28.04" fill="#FFFFFF" stroke="#282828" stroke-width="2" stroke-miterlimit="10" width="43.009" height="25.92"/>
</g>
</svg>
