<?xml version="1.0" encoding="utf-8"?>
<!-- Generator: Adobe Illustrator 16.0.0, SVG Export Plug-In . SVG Version: 6.00 Build 0)  -->
<!DOCTYPE svg PUBLIC "-//W3C//DTD SVG 1.1//EN" "http://www.w3.org/Graphics/SVG/1.1/DTD/svg11.dtd">
<svg version="1.1" id="圖層_1" xmlns="http://www.w3.org/2000/svg" xmlns:xlink="http://www.w3.org/1999/xlink" x="0px" y="0px"
	 width="82px" height="82px" viewBox="0 0 82 82" enable-background="new 0 0 82 82" xml:space="preserve">
<path fill="#3298FF" d="M42.941,80.001c-32.489-16.995-35.562-52.275,0-74.004C78.504,27.726,75.43,63.006,42.941,80.001z"/>
<rect x="-0.059" fill="none" width="82" height="82"/>
<path fill="#1B6896" stroke="#1B6896" stroke-width="2" stroke-miterlimit="10" d="M59.646,21.026
	c-4.609,2.333-15.084,5.772-15.084,10.293c0,4.519,3.77,31.086,3.77,31.086l-7.39,5.377l-7.391-5.377c0,0,3.768-26.567,3.768-31.086
	c0-4.521-10.472-7.96-15.084-10.293"/>
<line fill="none" stroke="#282828" stroke-width="2" stroke-miterlimit="10" x1="40.942" y1="3.997" x2="40.942" y2="78.001"/>
<path fill="#1B6896" stroke="#1B6896" stroke-width="2" stroke-miterlimit="10" d="M64.719,39.571H50.295
	C50.295,45.214,64.719,49.679,64.719,39.571z"/>
<path fill="#1B6896" stroke="#1B6896" stroke-width="2" stroke-miterlimit="10" d="M31.588,39.571H17.165
	C17.165,49.679,31.588,45.214,31.588,39.571z"/>
<path fill="#FFFFFF" stroke="#282828" stroke-width="2" stroke-miterlimit="10" d="M64.717,35.891H50.295
	C50.295,41.533,64.717,45.998,64.717,35.891z"/>
<path fill="#FFFFFF" stroke="#282828" stroke-width="2" stroke-miterlimit="10" d="M31.587,35.891H17.165
	C17.165,45.998,31.587,41.533,31.587,35.891z"/>
<path fill="none" stroke="#282828" stroke-width="2" stroke-miterlimit="10" d="M40.942,78.001
	c-32.489-16.995-35.563-52.275,0-74.004C76.504,25.726,73.43,61.006,40.942,78.001z"/>
</svg>
