<?xml version="1.0" encoding="utf-8"?>
<!-- Generator: Adobe Illustrator 16.0.0, SVG Export Plug-In . SVG Version: 6.00 Build 0)  -->
<!DOCTYPE svg PUBLIC "-//W3C//DTD SVG 1.1//EN" "http://www.w3.org/Graphics/SVG/1.1/DTD/svg11.dtd">
<svg version="1.1" id="圖層_1" xmlns="http://www.w3.org/2000/svg" xmlns:xlink="http://www.w3.org/1999/xlink" x="0px" y="0px"
	 width="82px" height="82px" viewBox="0 0 82 82" enable-background="new 0 0 82 82" xml:space="preserve">
<g>
	<path fill="#3298FF" d="M46.58,43L65.9,23.682C60.268,16.728,51.666,12.28,42.02,12.28C25.055,12.28,11.3,26.033,11.3,43
		c0,16.966,13.755,30.721,30.72,30.721c9.646,0,18.248-4.448,23.881-11.401L46.58,43z"/>
	<rect fill="none" width="82" height="82"/>
	<circle fill="#FFFFFF" stroke="#282828" stroke-width="2" stroke-miterlimit="10" cx="35.22" cy="27.08" r="4.56"/>
	<g>
		<g>
			<path fill="#1B6896" d="M40.02,70.721c-14.06,0-25.871-9.813-28.942-22.951c4.98,11.111,16.105,18.667,28.942,18.667
				c7.672,0,15.02-2.758,20.797-7.786l1.73,1.729C56.883,66.963,48.724,70.721,40.02,70.721z"/>
			<path fill="#1B6896" d="M16.647,57.673c5.952,6.059,14.242,9.764,23.373,9.764c7.602,0,14.895-2.625,20.74-7.429l0.413,0.413
				c-5.44,5.933-13.053,9.3-21.153,9.3C30.395,69.721,21.861,64.962,16.647,57.673 M9.458,37.858C9.354,38.891,9.3,39.939,9.3,41
				c0,16.966,13.755,30.721,30.72,30.721c9.646,0,18.248-4.448,23.881-11.401l-3.047-3.046c-5.475,5.061-12.787,8.163-20.834,8.163
				C24.115,65.437,11.032,53.349,9.458,37.858L9.458,37.858z"/>
		</g>
	</g>
	<circle fill="#3298FF" stroke="#282828" stroke-width="2" stroke-miterlimit="10" cx="72.05" cy="41" r="3.149"/>
	<circle fill="#3298FF" stroke="#282828" stroke-width="2" stroke-miterlimit="10" cx="60.551" cy="41" r="3.15"/>
	<path fill="none" stroke="#282828" stroke-width="2" stroke-miterlimit="10" d="M44.58,41L63.9,21.682
		C58.268,14.728,49.666,10.28,40.02,10.28C23.055,10.28,9.3,24.033,9.3,41c0,16.966,13.755,30.721,30.72,30.721
		c9.646,0,18.248-4.448,23.881-11.401L44.58,41z"/>
</g>
</svg>
