<?xml version="1.0" encoding="utf-8"?>
<!-- Generator: Adobe Illustrator 16.0.0, SVG Export Plug-In . SVG Version: 6.00 Build 0)  -->
<!DOCTYPE svg PUBLIC "-//W3C//DTD SVG 1.1//EN" "http://www.w3.org/Graphics/SVG/1.1/DTD/svg11.dtd">
<svg version="1.1" id="圖層_2" xmlns="http://www.w3.org/2000/svg" xmlns:xlink="http://www.w3.org/1999/xlink" x="0px" y="0px"
	 width="52px" height="52px" viewBox="0 0 52 52" enable-background="new 0 0 52 52" xml:space="preserve">
<path fill="none" stroke="#383838" stroke-width="2" stroke-miterlimit="10" d="M23.958,22.681c-2.85-0.075-4.537,2.288-7.2,1.237
	c-2.157-0.851-4.5-4.05-3.375-8.325s4.65-7.125,7.538-8.212c2.448-0.922,7.388-0.675,8.85,3.938
	c1.462,4.612,6.462,4.615,8.476,5.063c2.699,0.6,5.024,2.775,2.774,6.038c-2.525,3.661-6.487,3.412-10.087,2.85
	C27.333,24.706,25.599,22.724,23.958,22.681z"/>
<path fill="none" stroke="#383838" stroke-width="2" stroke-miterlimit="10" d="M18.995,23.957
	c-1.281,4.237-2.434,7.835-2.462,10.312c-0.056,5.007,0.941,5.625,1.347,8.101"/>
<path fill="none" stroke="#383838" stroke-width="2" stroke-miterlimit="10" d="M27.502,24.087c0.29,2.25,0.169,8.438,0.844,11.869
	c0.762,3.87-0.45,6.356-1.013,7.313"/>
<path fill="none" stroke="#383838" stroke-width="2" stroke-miterlimit="10" d="M10.073,34.381c1.013,4.613,2.121,7.918,9.788,7.988
	c7.667,0.068,12.15,2.699,14.737,6.975"/>
<path fill="none" stroke="#383838" stroke-width="2" stroke-miterlimit="10" d="M27.84,29.6c2.547,1.35,4.612,3.544,5.344,4.295
	c1.256,1.289,3.16,0.986,3.441,2.73c0.286,1.777-0.629,4.112-0.629,4.112"/>
<path fill="none" stroke="#383838" stroke-width="2" stroke-miterlimit="10" d="M32.813,33.563C32.926,35.756,32.374,37.875,32,39"
	/>
<path fill="none" stroke="#383838" stroke-width="2" stroke-miterlimit="10" d="M21.089,14.975c0.844,0.9,1.969,1.181,2.925,1.125
	c0.956-0.057,2.306-0.225,3.263,0.168"/>
<path fill="none" stroke="#383838" stroke-width="2" stroke-miterlimit="10" d="M17.996,3.781c-0.197,1.125,0.084,2.222,0.619,2.925
	c0.572,0.753,0.394,1.322,0.338,1.913"/>
<path fill="none" stroke="#383838" stroke-width="2" stroke-miterlimit="10" d="M23.227,6.819c0.084-0.675,0.573-1.19,0.703-1.913
	c0.197-1.097-0.647-2.25-0.647-2.25"/>
<path fill="none" stroke="#383838" stroke-width="2" stroke-miterlimit="10" d="M27.277,8.281c0.563-0.675,1.58-0.867,2.306-1.631
	c1.041-1.097,0.479-3.263,0.479-3.263"/>
<rect fill="none" width="52" height="52"/>
</svg>
