<?xml version="1.0" encoding="utf-8"?>
<!-- Generator: Adobe Illustrator 16.0.0, SVG Export Plug-In . SVG Version: 6.00 Build 0)  -->
<!DOCTYPE svg PUBLIC "-//W3C//DTD SVG 1.1//EN" "http://www.w3.org/Graphics/SVG/1.1/DTD/svg11.dtd">
<svg version="1.1" id="圖層_2" xmlns="http://www.w3.org/2000/svg" xmlns:xlink="http://www.w3.org/1999/xlink" x="0px" y="0px"
	 width="52px" height="28px" viewBox="0 12 52 28" enable-background="new 0 12 52 28" xml:space="preserve">
<g>
	<path fill="none" stroke="#383838" stroke-width="2" stroke-miterlimit="10" d="M25.496,34.315
		c-2.82,0.412-4.078,3.031-6.881,2.452c-2.271-0.47-5.129-3.217-4.753-7.622c0.376-4.406,3.361-7.819,6.02-9.385
		c2.252-1.327,7.162-1.932,9.394,2.362c2.23,4.294,7.156,3.439,9.219,3.535c2.761,0.129,5.424,1.874,3.767,5.474
		c-1.857,4.04-5.804,4.473-9.449,4.537C29.168,35.731,27.119,34.075,25.496,34.315z"/>
	<path fill="none" stroke="#383838" stroke-width="2" stroke-miterlimit="10" d="M21.348,27.215c0.986,0.74,2.142,0.825,3.074,0.607
		c0.932-0.222,2.234-0.617,3.245-0.396"/>
	<path fill="none" stroke="#383838" stroke-width="2" stroke-miterlimit="10" d="M16.38,16.716c0,1.144,0.464,2.174,1.112,2.775
		c0.693,0.645,0.614,1.234,0.66,1.828"/>
	<path fill="none" stroke="#383838" stroke-width="2" stroke-miterlimit="10" d="M22.055,18.813
		c-0.032-0.68,0.361-1.271,0.365-2.005c0.006-1.115-1.021-2.106-1.021-2.106"/>
	<path fill="none" stroke="#383838" stroke-width="2" stroke-miterlimit="10" d="M26.297,19.559
		c0.438-0.763,1.408-1.126,1.992-2.002c0.836-1.26-0.088-3.298-0.088-3.298"/>
</g>
<rect y="12" fill="none" width="52" height="28"/>
</svg>
